<mxfile host="65bd71144e">
    <diagram name="Page-1" id="gMdg1iN22hnzt_OMKdm1">
        <mxGraphModel dx="980" dy="882" grid="1" gridSize="10" guides="1" tooltips="1" connect="1" arrows="1" fold="1" page="1" pageScale="1" pageWidth="827" pageHeight="1169" background="#ffffff" math="0" shadow="0">
            <root>
                <mxCell id="0"/>
                <mxCell id="1" parent="0"/>
                <mxCell id="oKD6eI-eg3it1qeFJJRR-65" value="" style="group" parent="1" vertex="1" connectable="0">
                    <mxGeometry x="20" y="290" width="770" height="830" as="geometry"/>
                </mxCell>
                <mxCell id="oKD6eI-eg3it1qeFJJRR-60" value="" style="rounded=0;whiteSpace=wrap;html=1;fillColor=none;" parent="oKD6eI-eg3it1qeFJJRR-65" vertex="1">
                    <mxGeometry width="770" height="830" as="geometry"/>
                </mxCell>
                <mxCell id="oKD6eI-eg3it1qeFJJRR-61" value="&lt;div&gt;Core complex&lt;/div&gt;&lt;div&gt;&lt;b&gt;ccx.sv&lt;/b&gt;&lt;br&gt;&lt;/div&gt;" style="text;html=1;align=center;verticalAlign=middle;whiteSpace=wrap;rounded=0;" parent="oKD6eI-eg3it1qeFJJRR-65" vertex="1">
                    <mxGeometry width="140" height="40" as="geometry"/>
                </mxCell>
                <mxCell id="3" style="edgeStyle=orthogonalEdgeStyle;rounded=0;orthogonalLoop=1;jettySize=auto;html=1;startArrow=classic;startFill=1;entryX=0.102;entryY=0.994;entryDx=0;entryDy=0;entryPerimeter=0;" parent="oKD6eI-eg3it1qeFJJRR-65" target="oKD6eI-eg3it1qeFJJRR-32" edge="1">
                    <mxGeometry relative="1" as="geometry">
                        <mxPoint x="240" y="414.95047619047614" as="targetPoint"/>
                        <mxPoint x="160" y="430" as="sourcePoint"/>
                        <Array as="points">
                            <mxPoint x="352" y="430"/>
                        </Array>
                    </mxGeometry>
                </mxCell>
                <mxCell id="4" value="toward DMA" style="edgeLabel;html=1;align=center;verticalAlign=middle;resizable=0;points=[];labelBackgroundColor=none;" parent="3" vertex="1" connectable="0">
                    <mxGeometry x="0.1797" relative="1" as="geometry">
                        <mxPoint x="-54" y="-10" as="offset"/>
                    </mxGeometry>
                </mxCell>
                <mxCell id="oKD6eI-eg3it1qeFJJRR-4" value="" style="group" parent="1" vertex="1" connectable="0">
                    <mxGeometry x="30" y="720" width="450" height="390" as="geometry"/>
                </mxCell>
                <mxCell id="oKD6eI-eg3it1qeFJJRR-2" value="" style="rounded=0;whiteSpace=wrap;html=1;fillColor=none;" parent="oKD6eI-eg3it1qeFJJRR-4" vertex="1">
                    <mxGeometry y="40" width="450" height="350" as="geometry"/>
                </mxCell>
                <mxCell id="oKD6eI-eg3it1qeFJJRR-16" style="edgeStyle=orthogonalEdgeStyle;rounded=0;orthogonalLoop=1;jettySize=auto;html=1;exitX=0.25;exitY=1;exitDx=0;exitDy=0;entryX=0.5;entryY=0;entryDx=0;entryDy=0;" parent="oKD6eI-eg3it1qeFJJRR-4" source="oKD6eI-eg3it1qeFJJRR-6" target="oKD6eI-eg3it1qeFJJRR-7" edge="1">
                    <mxGeometry relative="1" as="geometry"/>
                </mxCell>
                <mxCell id="oKD6eI-eg3it1qeFJJRR-6" value="&lt;div&gt;socket&lt;/div&gt;&lt;div&gt;&lt;b&gt;tl_socket_m1.sv&lt;/b&gt;&lt;br&gt;&lt;/div&gt;" style="rounded=0;whiteSpace=wrap;html=1;" parent="oKD6eI-eg3it1qeFJJRR-4" vertex="1">
                    <mxGeometry x="160" y="50" width="120" height="60" as="geometry"/>
                </mxCell>
                <mxCell id="oKD6eI-eg3it1qeFJJRR-22" style="edgeStyle=orthogonalEdgeStyle;rounded=0;orthogonalLoop=1;jettySize=auto;html=1;exitX=0.5;exitY=1;exitDx=0;exitDy=0;entryX=0.5;entryY=0;entryDx=0;entryDy=0;" parent="oKD6eI-eg3it1qeFJJRR-4" source="oKD6eI-eg3it1qeFJJRR-7" target="oKD6eI-eg3it1qeFJJRR-20" edge="1">
                    <mxGeometry relative="1" as="geometry"/>
                </mxCell>
                <mxCell id="oKD6eI-eg3it1qeFJJRR-7" value="&lt;div&gt;dcache_inst&lt;/div&gt;&lt;div&gt;&lt;b&gt;muntjac_dcache.sv&lt;/b&gt;&lt;br&gt;&lt;/div&gt;" style="rounded=0;whiteSpace=wrap;html=1;" parent="oKD6eI-eg3it1qeFJJRR-4" vertex="1">
                    <mxGeometry x="53.27" y="150" width="126.73" height="60" as="geometry"/>
                </mxCell>
                <mxCell id="oKD6eI-eg3it1qeFJJRR-17" style="edgeStyle=orthogonalEdgeStyle;rounded=0;orthogonalLoop=1;jettySize=auto;html=1;exitX=0.5;exitY=0;exitDx=0;exitDy=0;entryX=0.75;entryY=1;entryDx=0;entryDy=0;" parent="oKD6eI-eg3it1qeFJJRR-4" source="oKD6eI-eg3it1qeFJJRR-8" target="oKD6eI-eg3it1qeFJJRR-6" edge="1">
                    <mxGeometry relative="1" as="geometry"/>
                </mxCell>
                <mxCell id="oKD6eI-eg3it1qeFJJRR-8" value="&lt;div&gt;icache_inst&lt;/div&gt;&lt;div&gt;&lt;b&gt;muntjac_icache.sv&lt;/b&gt;&lt;br&gt;&lt;/div&gt;" style="rounded=0;whiteSpace=wrap;html=1;" parent="oKD6eI-eg3it1qeFJJRR-4" vertex="1">
                    <mxGeometry x="260" y="150" width="120" height="60" as="geometry"/>
                </mxCell>
                <mxCell id="oKD6eI-eg3it1qeFJJRR-19" value="" style="rounded=0;whiteSpace=wrap;html=1;fillColor=none;" parent="oKD6eI-eg3it1qeFJJRR-4" vertex="1">
                    <mxGeometry x="10" y="240" width="430" height="140" as="geometry"/>
                </mxCell>
                <mxCell id="oKD6eI-eg3it1qeFJJRR-23" style="edgeStyle=orthogonalEdgeStyle;rounded=0;orthogonalLoop=1;jettySize=auto;html=1;exitX=1;exitY=0.5;exitDx=0;exitDy=0;entryX=0;entryY=0.5;entryDx=0;entryDy=0;" parent="oKD6eI-eg3it1qeFJJRR-4" source="oKD6eI-eg3it1qeFJJRR-20" target="oKD6eI-eg3it1qeFJJRR-21" edge="1">
                    <mxGeometry relative="1" as="geometry"/>
                </mxCell>
                <mxCell id="oKD6eI-eg3it1qeFJJRR-20" value="&lt;div&gt;frontend&lt;/div&gt;&lt;div&gt;&lt;b&gt;muntjac_frontend.sv&lt;/b&gt;&lt;br&gt;&lt;/div&gt;" style="rounded=0;whiteSpace=wrap;html=1;" parent="oKD6eI-eg3it1qeFJJRR-4" vertex="1">
                    <mxGeometry x="20" y="250" width="160" height="120" as="geometry"/>
                </mxCell>
                <mxCell id="oKD6eI-eg3it1qeFJJRR-24" style="edgeStyle=orthogonalEdgeStyle;rounded=0;orthogonalLoop=1;jettySize=auto;html=1;exitX=0.5;exitY=0;exitDx=0;exitDy=0;entryX=0.5;entryY=1;entryDx=0;entryDy=0;" parent="oKD6eI-eg3it1qeFJJRR-4" source="oKD6eI-eg3it1qeFJJRR-21" target="oKD6eI-eg3it1qeFJJRR-8" edge="1">
                    <mxGeometry relative="1" as="geometry"/>
                </mxCell>
                <mxCell id="oKD6eI-eg3it1qeFJJRR-21" value="&lt;div&gt;backend&lt;/div&gt;&lt;div&gt;&lt;b&gt;muntjac_backend.sv&lt;/b&gt;&lt;br&gt;&lt;/div&gt;" style="rounded=0;whiteSpace=wrap;html=1;" parent="oKD6eI-eg3it1qeFJJRR-4" vertex="1">
                    <mxGeometry x="260" y="250" width="170" height="120" as="geometry"/>
                </mxCell>
                <mxCell id="oKD6eI-eg3it1qeFJJRR-3" value="&lt;div align=&quot;left&quot;&gt;Core 0&lt;br&gt;&lt;/div&gt;&lt;div&gt;&lt;b&gt;muntjac_core_wrapper.sv&lt;/b&gt;&lt;br&gt;&lt;/div&gt;" style="text;html=1;align=left;verticalAlign=middle;whiteSpace=wrap;rounded=0;" parent="oKD6eI-eg3it1qeFJJRR-4" vertex="1">
                    <mxGeometry y="40" width="150" height="40" as="geometry"/>
                </mxCell>
                <mxCell id="oKD6eI-eg3it1qeFJJRR-33" style="edgeStyle=orthogonalEdgeStyle;rounded=0;orthogonalLoop=1;jettySize=auto;html=1;exitX=0.25;exitY=1;exitDx=0;exitDy=0;entryX=0.5;entryY=0;entryDx=0;entryDy=0;startArrow=classic;startFill=1;" parent="1" source="oKD6eI-eg3it1qeFJJRR-32" target="oKD6eI-eg3it1qeFJJRR-6" edge="1">
                    <mxGeometry relative="1" as="geometry">
                        <Array as="points">
                            <mxPoint x="390" y="730"/>
                            <mxPoint x="250" y="730"/>
                        </Array>
                    </mxGeometry>
                </mxCell>
                <mxCell id="oKD6eI-eg3it1qeFJJRR-32" value="&lt;div&gt;host_aggregator&lt;/div&gt;&lt;div&gt;&lt;b&gt;tl_socket_m1.sv&lt;/b&gt;&lt;br&gt;&lt;/div&gt;" style="rounded=0;whiteSpace=wrap;html=1;fillColor=none;" parent="1" vertex="1">
                    <mxGeometry x="360" y="640" width="120" height="60" as="geometry"/>
                </mxCell>
                <mxCell id="oKD6eI-eg3it1qeFJJRR-36" style="edgeStyle=orthogonalEdgeStyle;rounded=0;orthogonalLoop=1;jettySize=auto;html=1;exitX=0.5;exitY=1;exitDx=0;exitDy=0;startArrow=classic;startFill=1;" parent="1" source="oKD6eI-eg3it1qeFJJRR-32" target="oKD6eI-eg3it1qeFJJRR-26" edge="1">
                    <mxGeometry relative="1" as="geometry">
                        <mxPoint x="400" y="650" as="sourcePoint"/>
                        <mxPoint x="260" y="780" as="targetPoint"/>
                        <Array as="points">
                            <mxPoint x="420" y="740"/>
                            <mxPoint x="565" y="740"/>
                        </Array>
                    </mxGeometry>
                </mxCell>
                <mxCell id="oKD6eI-eg3it1qeFJJRR-37" style="edgeStyle=orthogonalEdgeStyle;rounded=0;orthogonalLoop=1;jettySize=auto;html=1;exitX=0.75;exitY=1;exitDx=0;exitDy=0;startArrow=classic;startFill=1;" parent="1" source="oKD6eI-eg3it1qeFJJRR-32" target="oKD6eI-eg3it1qeFJJRR-27" edge="1">
                    <mxGeometry relative="1" as="geometry">
                        <mxPoint x="430" y="650" as="sourcePoint"/>
                        <mxPoint x="575" y="770" as="targetPoint"/>
                        <Array as="points">
                            <mxPoint x="450" y="730"/>
                            <mxPoint x="715" y="730"/>
                        </Array>
                    </mxGeometry>
                </mxCell>
                <mxCell id="oKD6eI-eg3it1qeFJJRR-38" value="" style="group" parent="1" vertex="1" connectable="0">
                    <mxGeometry x="500" y="760" width="130" height="350" as="geometry"/>
                </mxCell>
                <mxCell id="oKD6eI-eg3it1qeFJJRR-26" value="" style="rounded=0;whiteSpace=wrap;html=1;fillColor=none;" parent="oKD6eI-eg3it1qeFJJRR-38" vertex="1">
                    <mxGeometry width="130" height="350" as="geometry"/>
                </mxCell>
                <mxCell id="oKD6eI-eg3it1qeFJJRR-28" value="&lt;div style=&quot;font-size: 10px;&quot; align=&quot;left&quot;&gt;Core 1&lt;br&gt;&lt;/div&gt;&lt;div style=&quot;font-size: 10px;&quot;&gt;&lt;b style=&quot;font-size: 10px;&quot;&gt;muntjac_core_wrapper.sv&lt;/b&gt;&lt;br style=&quot;font-size: 10px;&quot;&gt;&lt;/div&gt;" style="text;html=1;align=left;verticalAlign=middle;whiteSpace=wrap;rounded=0;fontSize=10;" parent="oKD6eI-eg3it1qeFJJRR-38" vertex="1">
                    <mxGeometry y="155" width="130" height="40" as="geometry"/>
                </mxCell>
                <mxCell id="oKD6eI-eg3it1qeFJJRR-39" value="" style="group" parent="1" vertex="1" connectable="0">
                    <mxGeometry x="650" y="760" width="130" height="350" as="geometry"/>
                </mxCell>
                <mxCell id="oKD6eI-eg3it1qeFJJRR-27" value="" style="rounded=0;whiteSpace=wrap;html=1;fillColor=none;" parent="oKD6eI-eg3it1qeFJJRR-39" vertex="1">
                    <mxGeometry width="130" height="350" as="geometry"/>
                </mxCell>
                <mxCell id="oKD6eI-eg3it1qeFJJRR-29" value="&lt;div style=&quot;font-size: 10px;&quot; align=&quot;left&quot;&gt;Core n&lt;br&gt;&lt;/div&gt;&lt;div style=&quot;font-size: 10px;&quot;&gt;&lt;b style=&quot;font-size: 10px;&quot;&gt;muntjac_core_wrapper.sv&lt;/b&gt;&lt;br style=&quot;font-size: 10px;&quot;&gt;&lt;/div&gt;" style="text;html=1;align=left;verticalAlign=middle;whiteSpace=wrap;rounded=0;fontSize=10;" parent="oKD6eI-eg3it1qeFJJRR-39" vertex="1">
                    <mxGeometry y="155" width="130" height="40" as="geometry"/>
                </mxCell>
                <mxCell id="oKD6eI-eg3it1qeFJJRR-41" style="edgeStyle=orthogonalEdgeStyle;rounded=0;orthogonalLoop=1;jettySize=auto;html=1;exitX=0.5;exitY=1;exitDx=0;exitDy=0;entryX=0.5;entryY=0;entryDx=0;entryDy=0;startArrow=classic;startFill=1;" parent="1" source="oKD6eI-eg3it1qeFJJRR-40" target="oKD6eI-eg3it1qeFJJRR-32" edge="1">
                    <mxGeometry relative="1" as="geometry"/>
                </mxCell>
                <mxCell id="oKD6eI-eg3it1qeFJJRR-40" value="&lt;div&gt;socket_1n&lt;br&gt;&lt;/div&gt;&lt;div&gt;&lt;b&gt;tl_socket_1n.sv&lt;/b&gt;&lt;br&gt;&lt;/div&gt;" style="rounded=0;whiteSpace=wrap;html=1;fillColor=none;" parent="1" vertex="1">
                    <mxGeometry x="360" y="550" width="120" height="60" as="geometry"/>
                </mxCell>
                <mxCell id="oKD6eI-eg3it1qeFJJRR-42" value="&lt;div&gt;inst&lt;br&gt;&lt;/div&gt;&lt;div&gt;&lt;b&gt;muntjac_llc.sv&lt;/b&gt;&lt;br&gt;&lt;/div&gt;" style="rounded=0;whiteSpace=wrap;html=1;fillColor=none;" parent="1" vertex="1">
                    <mxGeometry x="360" y="460" width="120" height="60" as="geometry"/>
                </mxCell>
                <mxCell id="oKD6eI-eg3it1qeFJJRR-43" style="edgeStyle=orthogonalEdgeStyle;rounded=0;orthogonalLoop=1;jettySize=auto;html=1;exitX=0.5;exitY=1;exitDx=0;exitDy=0;startArrow=classic;startFill=1;" parent="1" source="oKD6eI-eg3it1qeFJJRR-42" edge="1">
                    <mxGeometry relative="1" as="geometry">
                        <mxPoint x="430" y="620" as="sourcePoint"/>
                        <mxPoint x="420" y="550" as="targetPoint"/>
                    </mxGeometry>
                </mxCell>
                <mxCell id="oKD6eI-eg3it1qeFJJRR-49" style="edgeStyle=orthogonalEdgeStyle;rounded=0;orthogonalLoop=1;jettySize=auto;html=1;exitX=0;exitY=0.5;exitDx=0;exitDy=0;entryX=1;entryY=0.5;entryDx=0;entryDy=0;startArrow=classic;startFill=1;" parent="1" source="oKD6eI-eg3it1qeFJJRR-47" target="oKD6eI-eg3it1qeFJJRR-40" edge="1">
                    <mxGeometry relative="1" as="geometry"/>
                </mxCell>
                <mxCell id="oKD6eI-eg3it1qeFJJRR-50" style="edgeStyle=orthogonalEdgeStyle;rounded=0;orthogonalLoop=1;jettySize=auto;html=1;exitX=1;exitY=0.5;exitDx=0;exitDy=0;startArrow=classic;startFill=1;" parent="1" source="oKD6eI-eg3it1qeFJJRR-47" edge="1">
                    <mxGeometry relative="1" as="geometry">
                        <mxPoint x="710" y="580.1904761904761" as="targetPoint"/>
                    </mxGeometry>
                </mxCell>
                <mxCell id="oKD6eI-eg3it1qeFJJRR-51" value="toward IOs" style="edgeLabel;html=1;align=center;verticalAlign=middle;resizable=0;points=[];labelBackgroundColor=none;" parent="oKD6eI-eg3it1qeFJJRR-50" vertex="1" connectable="0">
                    <mxGeometry x="0.1797" relative="1" as="geometry">
                        <mxPoint x="-5" y="9" as="offset"/>
                    </mxGeometry>
                </mxCell>
                <mxCell id="oKD6eI-eg3it1qeFJJRR-47" value="&lt;div&gt;io_term&lt;br&gt;&lt;/div&gt;&lt;div&gt;&lt;b&gt;tl_io_terminator.sv&lt;/b&gt;&lt;br&gt;&lt;/div&gt;" style="rounded=0;whiteSpace=wrap;html=1;fillColor=none;" parent="1" vertex="1">
                    <mxGeometry x="510" y="550" width="120" height="60" as="geometry"/>
                </mxCell>
                <mxCell id="oKD6eI-eg3it1qeFJJRR-58" style="edgeStyle=orthogonalEdgeStyle;rounded=0;orthogonalLoop=1;jettySize=auto;html=1;exitX=0.5;exitY=0;exitDx=0;exitDy=0;startArrow=classic;startFill=1;" parent="1" source="oKD6eI-eg3it1qeFJJRR-52" edge="1">
                    <mxGeometry relative="1" as="geometry">
                        <mxPoint x="420" y="320" as="targetPoint"/>
                    </mxGeometry>
                </mxCell>
                <mxCell id="oKD6eI-eg3it1qeFJJRR-59" value="&lt;div&gt;toward&lt;/div&gt;&lt;div&gt;RAM&lt;/div&gt;" style="edgeLabel;html=1;align=center;verticalAlign=middle;resizable=0;points=[];" parent="oKD6eI-eg3it1qeFJJRR-58" vertex="1" connectable="0">
                    <mxGeometry x="0.3137" relative="1" as="geometry">
                        <mxPoint x="20" y="3" as="offset"/>
                    </mxGeometry>
                </mxCell>
                <mxCell id="oKD6eI-eg3it1qeFJJRR-52" value="&lt;div&gt;mem_term&lt;br&gt;&lt;/div&gt;&lt;div&gt;&lt;b&gt;tl_ram_terminator.sv&lt;/b&gt;&lt;br&gt;&lt;/div&gt;" style="rounded=0;whiteSpace=wrap;html=1;fillColor=none;" parent="1" vertex="1">
                    <mxGeometry x="350" y="370" width="140" height="60" as="geometry"/>
                </mxCell>
                <mxCell id="oKD6eI-eg3it1qeFJJRR-53" style="edgeStyle=orthogonalEdgeStyle;rounded=0;orthogonalLoop=1;jettySize=auto;html=1;exitX=0.5;exitY=1;exitDx=0;exitDy=0;startArrow=classic;startFill=1;entryX=0.5;entryY=0;entryDx=0;entryDy=0;" parent="1" source="oKD6eI-eg3it1qeFJJRR-52" target="oKD6eI-eg3it1qeFJJRR-42" edge="1">
                    <mxGeometry relative="1" as="geometry">
                        <mxPoint x="430" y="530" as="sourcePoint"/>
                        <mxPoint x="440" y="450" as="targetPoint"/>
                    </mxGeometry>
                </mxCell>
                <mxCell id="oKD6eI-eg3it1qeFJJRR-54" value="&lt;div&gt;rom_term&lt;br&gt;&lt;/div&gt;&lt;div&gt;&lt;b&gt;tl_rom_terminator.sv&lt;/b&gt;&lt;br&gt;&lt;/div&gt;" style="rounded=0;whiteSpace=wrap;html=1;fillColor=none;" parent="1" vertex="1">
                    <mxGeometry x="200" y="550" width="130" height="60" as="geometry"/>
                </mxCell>
                <mxCell id="oKD6eI-eg3it1qeFJJRR-55" style="edgeStyle=orthogonalEdgeStyle;rounded=0;orthogonalLoop=1;jettySize=auto;html=1;exitX=0;exitY=0.5;exitDx=0;exitDy=0;entryX=1;entryY=0.5;entryDx=0;entryDy=0;startArrow=classic;startFill=1;" parent="1" source="oKD6eI-eg3it1qeFJJRR-40" target="oKD6eI-eg3it1qeFJJRR-54" edge="1">
                    <mxGeometry relative="1" as="geometry">
                        <mxPoint x="520" y="590" as="sourcePoint"/>
                        <mxPoint x="490" y="590" as="targetPoint"/>
                    </mxGeometry>
                </mxCell>
                <mxCell id="oKD6eI-eg3it1qeFJJRR-56" style="edgeStyle=orthogonalEdgeStyle;rounded=0;orthogonalLoop=1;jettySize=auto;html=1;exitX=1;exitY=0.5;exitDx=0;exitDy=0;startArrow=classic;startFill=1;" parent="1" edge="1">
                    <mxGeometry relative="1" as="geometry">
                        <mxPoint x="200" y="579.6904761904761" as="targetPoint"/>
                        <mxPoint x="120" y="579.5" as="sourcePoint"/>
                        <Array as="points">
                            <mxPoint x="160" y="580"/>
                            <mxPoint x="200" y="580"/>
                        </Array>
                    </mxGeometry>
                </mxCell>
                <mxCell id="oKD6eI-eg3it1qeFJJRR-57" value="toward ROM" style="edgeLabel;html=1;align=center;verticalAlign=middle;resizable=0;points=[];labelBackgroundColor=none;" parent="oKD6eI-eg3it1qeFJJRR-56" vertex="1" connectable="0">
                    <mxGeometry x="0.1797" relative="1" as="geometry">
                        <mxPoint x="-5" y="7" as="offset"/>
                    </mxGeometry>
                </mxCell>
            </root>
        </mxGraphModel>
    </diagram>
</mxfile>